<svg width="151" height="70" viewBox="0 0 151 70" fill="none" xmlns="http://www.w3.org/2000/svg">
<g clip-path="url(#clip0_24_8)">
<path d="M32.5 41.4V20.6C32.5 19.6 31.8571 19 30.7857 19H8.92857C5.28571 19 2.5 21.6 2.5 25V45C2.5 48.4 5.28571 51 8.92857 51H30.7857C31.6429 51 32.5 50.4 32.5 49.4V48.4C32.5 48 32.2857 47.6 31.8571 47.2C31.6429 46.2 31.6429 43.4 31.8571 42.6C32.2857 42.4 32.5 42 32.5 41.4ZM12.1429 28C12.1429 27.45 12.625 27 13.2143 27H16.4286V24C16.4286 23.45 16.9107 23 17.5 23H19.6429C20.2321 23 20.7143 23.45 20.7143 24V27H23.9286C24.5179 27 25 27.45 25 28V30C25 30.55 24.5179 31 23.9286 31H20.7143V38C20.7143 38.55 20.2321 39 19.6429 39H17.5C16.9107 39 16.4286 38.55 16.4286 38V31H13.2143C12.625 31 12.1429 30.55 12.1429 30V28ZM28 47H8.92857C7.64286 47 6.78571 46.2 6.78571 45C6.78571 43.8 7.85714 43 8.92857 43H28V47Z" fill="#C92F2F"/>
</g>
<path d="M58.1133 36.3398C56.8164 36.3398 55.6172 36.1484 54.5156 35.7656C53.4219 35.3828 52.4805 34.8125 51.6914 34.0547C50.9023 33.2969 50.2891 32.3516 49.8516 31.2188C49.4219 30.0859 49.207 28.7773 49.207 27.293C49.207 25.9102 49.4141 24.6562 49.8281 23.5312C50.2422 22.4062 50.8438 21.4414 51.6328 20.6367C52.3906 19.8633 53.3281 19.2656 54.4453 18.8438C55.5703 18.4219 56.7969 18.2109 58.125 18.2109C58.8594 18.2109 59.5195 18.2539 60.1055 18.3398C60.6992 18.418 61.2461 18.5234 61.7461 18.6562C62.2695 18.8047 62.7422 18.9727 63.1641 19.1602C63.5938 19.3398 63.9688 19.5078 64.2891 19.6641V23.8945H63.7734C63.5547 23.707 63.2773 23.4844 62.9414 23.2266C62.6133 22.9688 62.2383 22.7148 61.8164 22.4648C61.3867 22.2148 60.9219 22.0039 60.4219 21.832C59.9219 21.6602 59.3867 21.5742 58.8164 21.5742C58.1836 21.5742 57.582 21.6758 57.0117 21.8789C56.4414 22.0742 55.9141 22.4023 55.4297 22.8633C54.9688 23.3086 54.5938 23.8984 54.3047 24.6328C54.0234 25.3672 53.8828 26.2578 53.8828 27.3047C53.8828 28.3984 54.0352 29.3125 54.3398 30.0469C54.6523 30.7812 55.043 31.3594 55.5117 31.7812C55.9883 32.2109 56.5195 32.5195 57.1055 32.707C57.6914 32.8867 58.2695 32.9766 58.8398 32.9766C59.3867 32.9766 59.9258 32.8945 60.457 32.7305C60.9961 32.5664 61.4922 32.3438 61.9453 32.0625C62.3281 31.8359 62.6836 31.5938 63.0117 31.3359C63.3398 31.0781 63.6094 30.8555 63.8203 30.668H64.2891V34.8398C63.8516 35.0352 63.4336 35.2188 63.0352 35.3906C62.6367 35.5625 62.2188 35.7109 61.7812 35.8359C61.2109 36 60.6758 36.125 60.1758 36.2109C59.6758 36.2969 58.9883 36.3398 58.1133 36.3398ZM79.1789 23.8945C79.1789 23.457 79.0891 23.082 78.9094 22.7695C78.7297 22.457 78.4211 22.2109 77.9836 22.0312C77.6789 21.9062 77.3234 21.832 76.9172 21.8086C76.5109 21.7773 76.0383 21.7617 75.4992 21.7617H73.8703V26.4609H75.2531C75.9719 26.4609 76.5734 26.4258 77.0578 26.3555C77.5422 26.2852 77.9484 26.125 78.2766 25.875C78.5891 25.6328 78.8156 25.3672 78.9562 25.0781C79.1047 24.7812 79.1789 24.3867 79.1789 23.8945ZM86.1984 36H80.7023L75.9445 29.6016H73.8703V36H69.3937V18.5508H76.9406C77.9719 18.5508 78.8586 18.6094 79.6008 18.7266C80.343 18.8438 81.0383 19.0977 81.6867 19.4883C82.343 19.8789 82.8625 20.3867 83.2453 21.0117C83.6359 21.6289 83.8312 22.4062 83.8312 23.3438C83.8312 24.6328 83.5305 25.6836 82.9289 26.4961C82.3352 27.3086 81.4836 27.9844 80.3742 28.5234L86.1984 36ZM106.936 27.2812C106.936 30.0625 106.139 32.2734 104.545 33.9141C102.952 35.5469 100.748 36.3633 97.9359 36.3633C95.1312 36.3633 92.932 35.5469 91.3383 33.9141C89.7445 32.2734 88.9477 30.0625 88.9477 27.2812C88.9477 24.4766 89.7445 22.2617 91.3383 20.6367C92.932 19.0039 95.1312 18.1875 97.9359 18.1875C100.733 18.1875 102.932 19.0039 104.534 20.6367C106.135 22.2617 106.936 24.4766 106.936 27.2812ZM100.971 31.6992C101.409 31.168 101.733 30.543 101.944 29.8242C102.155 29.0977 102.26 28.2461 102.26 27.2695C102.26 26.2227 102.139 25.332 101.897 24.5977C101.655 23.8633 101.338 23.2695 100.948 22.8164C100.549 22.3477 100.088 22.0078 99.5648 21.7969C99.0492 21.5859 98.5102 21.4805 97.9477 21.4805C97.3773 21.4805 96.8383 21.582 96.3305 21.7852C95.8305 21.9883 95.3695 22.3242 94.9477 22.793C94.557 23.2305 94.2367 23.8359 93.9867 24.6094C93.7445 25.375 93.6234 26.2656 93.6234 27.2812C93.6234 28.3203 93.7406 29.207 93.975 29.9414C94.2172 30.668 94.5336 31.2617 94.9242 31.7227C95.3148 32.1836 95.7719 32.5234 96.2953 32.7422C96.8187 32.9609 97.3695 33.0703 97.9477 33.0703C98.5258 33.0703 99.0766 32.9609 99.6 32.7422C100.123 32.5156 100.58 32.168 100.971 31.6992ZM126.15 30.5156C126.15 32.2344 125.42 33.6328 123.959 34.7109C122.505 35.7812 120.529 36.3164 118.029 36.3164C116.584 36.3164 115.322 36.1914 114.244 35.9414C113.173 35.6836 112.17 35.3594 111.232 34.9688V30.7852H111.724C112.654 31.5273 113.693 32.0977 114.841 32.4961C115.998 32.8945 117.107 33.0938 118.17 33.0938C118.443 33.0938 118.802 33.0703 119.248 33.0234C119.693 32.9766 120.056 32.8984 120.338 32.7891C120.681 32.6484 120.963 32.4727 121.181 32.2617C121.408 32.0508 121.521 31.7383 121.521 31.3242C121.521 30.9414 121.357 30.6133 121.029 30.3398C120.709 30.0586 120.236 29.8438 119.611 29.6953C118.955 29.5391 118.259 29.3945 117.525 29.2617C116.798 29.1211 116.115 28.9453 115.474 28.7344C114.005 28.2578 112.947 27.6133 112.298 26.8008C111.658 25.9805 111.338 24.9648 111.338 23.7539C111.338 22.1289 112.064 20.8047 113.517 19.7812C114.978 18.75 116.853 18.2344 119.142 18.2344C120.291 18.2344 121.423 18.3477 122.541 18.5742C123.666 18.793 124.638 19.0703 125.459 19.4062V23.4258H124.978C124.275 22.8633 123.412 22.3945 122.388 22.0195C121.373 21.6367 120.334 21.4453 119.271 21.4453C118.896 21.4453 118.521 21.4727 118.146 21.5273C117.779 21.5742 117.423 21.668 117.08 21.8086C116.775 21.9258 116.513 22.1055 116.295 22.3477C116.076 22.582 115.966 22.8516 115.966 23.1562C115.966 23.6172 116.142 23.9727 116.494 24.2227C116.845 24.4648 117.509 24.6875 118.486 24.8906C119.127 25.0234 119.74 25.1523 120.326 25.2773C120.92 25.4023 121.556 25.5742 122.236 25.793C123.572 26.2305 124.556 26.8281 125.189 27.5859C125.83 28.3359 126.15 29.3125 126.15 30.5156ZM143.665 36H131.044V18.5508H143.665V21.9258H135.52V24.9375H143.079V28.3125H135.52V32.625H143.665V36Z" fill="black"/>
<path d="M54.2139 49.1416C53.6735 49.1416 53.1738 49.0618 52.7148 48.9023C52.2591 48.7428 51.8669 48.5052 51.5381 48.1895C51.2093 47.8737 50.9538 47.4798 50.7715 47.0078C50.5924 46.5358 50.5029 45.9906 50.5029 45.3721C50.5029 44.7959 50.5892 44.2734 50.7617 43.8047C50.9342 43.3359 51.1849 42.9339 51.5137 42.5986C51.8294 42.2764 52.2201 42.0273 52.6855 41.8516C53.1543 41.6758 53.6654 41.5879 54.2188 41.5879C54.5247 41.5879 54.7998 41.6058 55.0439 41.6416C55.2913 41.6742 55.5192 41.7181 55.7275 41.7734C55.9456 41.8353 56.1426 41.9053 56.3184 41.9834C56.4974 42.0583 56.6536 42.1283 56.7871 42.1934V43.9561H56.5723C56.4811 43.8779 56.3656 43.7852 56.2256 43.6777C56.0889 43.5703 55.9326 43.4645 55.7568 43.3604C55.5778 43.2562 55.3841 43.1683 55.1758 43.0967C54.9674 43.0251 54.7445 42.9893 54.5068 42.9893C54.2432 42.9893 53.9925 43.0316 53.7549 43.1162C53.5173 43.1976 53.2975 43.3343 53.0957 43.5264C52.9036 43.7119 52.7474 43.9577 52.627 44.2637C52.5098 44.5697 52.4512 44.9408 52.4512 45.377C52.4512 45.8327 52.5146 46.2135 52.6416 46.5195C52.7718 46.8255 52.9346 47.0664 53.1299 47.2422C53.3285 47.4212 53.5498 47.5498 53.7939 47.6279C54.0381 47.7028 54.279 47.7402 54.5166 47.7402C54.7445 47.7402 54.9691 47.7061 55.1904 47.6377C55.415 47.5693 55.6217 47.4766 55.8105 47.3594C55.9701 47.265 56.1182 47.1641 56.2549 47.0566C56.3916 46.9492 56.5039 46.8564 56.5918 46.7783H56.7871V48.5166C56.6048 48.598 56.4307 48.6745 56.2646 48.7461C56.0986 48.8177 55.9245 48.8796 55.7422 48.9316C55.5046 49 55.2816 49.0521 55.0732 49.0879C54.8649 49.1237 54.5785 49.1416 54.2139 49.1416ZM66.3826 49H64.5076V45.7969H61.7391V49H59.8641V41.7295H61.7391V44.3906H64.5076V41.7295H66.3826V49ZM76.3102 46.3682C76.3102 47.2666 76.0367 47.9551 75.4898 48.4336C74.943 48.9121 74.1373 49.1514 73.0729 49.1514C72.0084 49.1514 71.2027 48.9121 70.6559 48.4336C70.1122 47.9551 69.8404 47.2682 69.8404 46.373V41.7295H71.7252V46.2656C71.7252 46.7702 71.831 47.1462 72.0426 47.3936C72.2542 47.641 72.5976 47.7646 73.0729 47.7646C73.5416 47.7646 73.8834 47.6458 74.0982 47.4082C74.3163 47.1706 74.4254 46.7897 74.4254 46.2656V41.7295H76.3102V46.3682ZM83.8451 43.9561C83.8451 43.7738 83.8077 43.6175 83.7328 43.4873C83.6579 43.3571 83.5294 43.2546 83.3471 43.1797C83.2201 43.1276 83.072 43.0967 82.9027 43.0869C82.7335 43.0739 82.5365 43.0674 82.3119 43.0674H81.6332V45.0254H82.2094C82.5089 45.0254 82.7595 45.0107 82.9613 44.9814C83.1632 44.9521 83.3324 44.8854 83.4691 44.7812C83.5993 44.6803 83.6938 44.5697 83.7523 44.4492C83.8142 44.3255 83.8451 44.1611 83.8451 43.9561ZM86.7699 49H84.4799L82.4975 46.334H81.6332V49H79.768V41.7295H82.9125C83.3422 41.7295 83.7117 41.7539 84.0209 41.8027C84.3301 41.8516 84.6199 41.9574 84.89 42.1201C85.1635 42.2829 85.3799 42.4945 85.5395 42.7549C85.7022 43.012 85.7836 43.3359 85.7836 43.7266C85.7836 44.2637 85.6583 44.7015 85.4076 45.04C85.1602 45.3786 84.8054 45.6602 84.3432 45.8848L86.7699 49ZM92.5764 49.1416C92.036 49.1416 91.5363 49.0618 91.0773 48.9023C90.6216 48.7428 90.2294 48.5052 89.9006 48.1895C89.5718 47.8737 89.3163 47.4798 89.134 47.0078C88.9549 46.5358 88.8654 45.9906 88.8654 45.3721C88.8654 44.7959 88.9517 44.2734 89.1242 43.8047C89.2967 43.3359 89.5474 42.9339 89.8762 42.5986C90.1919 42.2764 90.5826 42.0273 91.048 41.8516C91.5168 41.6758 92.0279 41.5879 92.5812 41.5879C92.8872 41.5879 93.1623 41.6058 93.4064 41.6416C93.6538 41.6742 93.8817 41.7181 94.09 41.7734C94.3081 41.8353 94.5051 41.9053 94.6809 41.9834C94.8599 42.0583 95.0161 42.1283 95.1496 42.1934V43.9561H94.9348C94.8436 43.8779 94.7281 43.7852 94.5881 43.6777C94.4514 43.5703 94.2951 43.4645 94.1193 43.3604C93.9403 43.2562 93.7466 43.1683 93.5383 43.0967C93.3299 43.0251 93.107 42.9893 92.8693 42.9893C92.6057 42.9893 92.355 43.0316 92.1174 43.1162C91.8798 43.1976 91.66 43.3343 91.4582 43.5264C91.2661 43.7119 91.1099 43.9577 90.9895 44.2637C90.8723 44.5697 90.8137 44.9408 90.8137 45.377C90.8137 45.8327 90.8771 46.2135 91.0041 46.5195C91.1343 46.8255 91.2971 47.0664 91.4924 47.2422C91.6909 47.4212 91.9123 47.5498 92.1564 47.6279C92.4006 47.7028 92.6415 47.7402 92.8791 47.7402C93.107 47.7402 93.3316 47.7061 93.5529 47.6377C93.7775 47.5693 93.9842 47.4766 94.173 47.3594C94.3326 47.265 94.4807 47.1641 94.6174 47.0566C94.7541 46.9492 94.8664 46.8564 94.9543 46.7783H95.1496V48.5166C94.9673 48.598 94.7932 48.6745 94.6271 48.7461C94.4611 48.8177 94.287 48.8796 94.1047 48.9316C93.8671 49 93.6441 49.0521 93.4357 49.0879C93.2274 49.1237 92.9409 49.1416 92.5764 49.1416ZM104.745 49H102.87V45.7969H100.102V49H98.2266V41.7295H100.102V44.3906H102.87V41.7295H104.745V49ZM119.244 46.7148C119.244 47.431 118.939 48.0137 118.331 48.4629C117.725 48.9089 116.902 49.1318 115.86 49.1318C115.258 49.1318 114.732 49.0798 114.283 48.9756C113.837 48.8682 113.419 48.7331 113.028 48.5703V46.8271H113.233C113.62 47.1364 114.053 47.374 114.532 47.54C115.014 47.7061 115.476 47.7891 115.919 47.7891C116.032 47.7891 116.182 47.7793 116.368 47.7598C116.553 47.7402 116.705 47.7077 116.822 47.6621C116.965 47.6035 117.082 47.5303 117.173 47.4424C117.268 47.3545 117.315 47.2243 117.315 47.0518C117.315 46.8923 117.247 46.7555 117.11 46.6416C116.976 46.5244 116.78 46.4349 116.519 46.373C116.246 46.3079 115.956 46.2477 115.65 46.1924C115.347 46.1338 115.062 46.0605 114.796 45.9727C114.184 45.7741 113.742 45.5055 113.472 45.167C113.205 44.8252 113.072 44.402 113.072 43.8975C113.072 43.2204 113.375 42.6686 113.98 42.2422C114.589 41.8125 115.37 41.5977 116.324 41.5977C116.802 41.5977 117.274 41.6449 117.74 41.7393C118.209 41.8304 118.614 41.946 118.956 42.0859V43.7607H118.755C118.463 43.5264 118.103 43.3311 117.676 43.1748C117.253 43.0153 116.82 42.9355 116.378 42.9355C116.221 42.9355 116.065 42.9469 115.909 42.9697C115.756 42.9893 115.608 43.0283 115.464 43.0869C115.338 43.1357 115.228 43.2106 115.137 43.3115C115.046 43.4092 115.001 43.5215 115.001 43.6484C115.001 43.8405 115.074 43.9886 115.22 44.0928C115.367 44.1937 115.643 44.2865 116.05 44.3711C116.317 44.4264 116.573 44.4801 116.817 44.5322C117.064 44.5843 117.33 44.6559 117.613 44.7471C118.17 44.9294 118.58 45.1784 118.843 45.4941C119.11 45.8066 119.244 46.2135 119.244 46.7148ZM126.163 49H121.906V47.7109H123.097V43.0186H121.906V41.7295H126.163V43.0186H124.972V47.7109H126.163V49ZM135.08 43.1357H132.81V49H130.935V43.1357H128.664V41.7295H135.08V43.1357ZM143.167 49H137.908V41.7295H143.167V43.1357H139.773V44.3906H142.923V45.7969H139.773V47.5938H143.167V49Z" fill="#B0AEAE" fill-opacity="0.91"/>
<path d="M54.2139 49.1416C53.6735 49.1416 53.1738 49.0618 52.7148 48.9023C52.2591 48.7428 51.8669 48.5052 51.5381 48.1895C51.2093 47.8737 50.9538 47.4798 50.7715 47.0078C50.5924 46.5358 50.5029 45.9906 50.5029 45.3721C50.5029 44.7959 50.5892 44.2734 50.7617 43.8047C50.9342 43.3359 51.1849 42.9339 51.5137 42.5986C51.8294 42.2764 52.2201 42.0273 52.6855 41.8516C53.1543 41.6758 53.6654 41.5879 54.2188 41.5879C54.5247 41.5879 54.7998 41.6058 55.0439 41.6416C55.2913 41.6742 55.5192 41.7181 55.7275 41.7734C55.9456 41.8353 56.1426 41.9053 56.3184 41.9834C56.4974 42.0583 56.6536 42.1283 56.7871 42.1934V43.9561H56.5723C56.4811 43.8779 56.3656 43.7852 56.2256 43.6777C56.0889 43.5703 55.9326 43.4645 55.7568 43.3604C55.5778 43.2562 55.3841 43.1683 55.1758 43.0967C54.9674 43.0251 54.7445 42.9893 54.5068 42.9893C54.2432 42.9893 53.9925 43.0316 53.7549 43.1162C53.5173 43.1976 53.2975 43.3343 53.0957 43.5264C52.9036 43.7119 52.7474 43.9577 52.627 44.2637C52.5098 44.5697 52.4512 44.9408 52.4512 45.377C52.4512 45.8327 52.5146 46.2135 52.6416 46.5195C52.7718 46.8255 52.9346 47.0664 53.1299 47.2422C53.3285 47.4212 53.5498 47.5498 53.7939 47.6279C54.0381 47.7028 54.279 47.7402 54.5166 47.7402C54.7445 47.7402 54.9691 47.7061 55.1904 47.6377C55.415 47.5693 55.6217 47.4766 55.8105 47.3594C55.9701 47.265 56.1182 47.1641 56.2549 47.0566C56.3916 46.9492 56.5039 46.8564 56.5918 46.7783H56.7871V48.5166C56.6048 48.598 56.4307 48.6745 56.2646 48.7461C56.0986 48.8177 55.9245 48.8796 55.7422 48.9316C55.5046 49 55.2816 49.0521 55.0732 49.0879C54.8649 49.1237 54.5785 49.1416 54.2139 49.1416ZM66.3826 49H64.5076V45.7969H61.7391V49H59.8641V41.7295H61.7391V44.3906H64.5076V41.7295H66.3826V49ZM76.3102 46.3682C76.3102 47.2666 76.0367 47.9551 75.4898 48.4336C74.943 48.9121 74.1373 49.1514 73.0729 49.1514C72.0084 49.1514 71.2027 48.9121 70.6559 48.4336C70.1122 47.9551 69.8404 47.2682 69.8404 46.373V41.7295H71.7252V46.2656C71.7252 46.7702 71.831 47.1462 72.0426 47.3936C72.2542 47.641 72.5976 47.7646 73.0729 47.7646C73.5416 47.7646 73.8834 47.6458 74.0982 47.4082C74.3163 47.1706 74.4254 46.7897 74.4254 46.2656V41.7295H76.3102V46.3682ZM83.8451 43.9561C83.8451 43.7738 83.8077 43.6175 83.7328 43.4873C83.6579 43.3571 83.5294 43.2546 83.3471 43.1797C83.2201 43.1276 83.072 43.0967 82.9027 43.0869C82.7335 43.0739 82.5365 43.0674 82.3119 43.0674H81.6332V45.0254H82.2094C82.5089 45.0254 82.7595 45.0107 82.9613 44.9814C83.1632 44.9521 83.3324 44.8854 83.4691 44.7812C83.5993 44.6803 83.6938 44.5697 83.7523 44.4492C83.8142 44.3255 83.8451 44.1611 83.8451 43.9561ZM86.7699 49H84.4799L82.4975 46.334H81.6332V49H79.768V41.7295H82.9125C83.3422 41.7295 83.7117 41.7539 84.0209 41.8027C84.3301 41.8516 84.6199 41.9574 84.89 42.1201C85.1635 42.2829 85.3799 42.4945 85.5395 42.7549C85.7022 43.012 85.7836 43.3359 85.7836 43.7266C85.7836 44.2637 85.6583 44.7015 85.4076 45.04C85.1602 45.3786 84.8054 45.6602 84.3432 45.8848L86.7699 49ZM92.5764 49.1416C92.036 49.1416 91.5363 49.0618 91.0773 48.9023C90.6216 48.7428 90.2294 48.5052 89.9006 48.1895C89.5718 47.8737 89.3163 47.4798 89.134 47.0078C88.9549 46.5358 88.8654 45.9906 88.8654 45.3721C88.8654 44.7959 88.9517 44.2734 89.1242 43.8047C89.2967 43.3359 89.5474 42.9339 89.8762 42.5986C90.1919 42.2764 90.5826 42.0273 91.048 41.8516C91.5168 41.6758 92.0279 41.5879 92.5812 41.5879C92.8872 41.5879 93.1623 41.6058 93.4064 41.6416C93.6538 41.6742 93.8817 41.7181 94.09 41.7734C94.3081 41.8353 94.5051 41.9053 94.6809 41.9834C94.8599 42.0583 95.0161 42.1283 95.1496 42.1934V43.9561H94.9348C94.8436 43.8779 94.7281 43.7852 94.5881 43.6777C94.4514 43.5703 94.2951 43.4645 94.1193 43.3604C93.9403 43.2562 93.7466 43.1683 93.5383 43.0967C93.3299 43.0251 93.107 42.9893 92.8693 42.9893C92.6057 42.9893 92.355 43.0316 92.1174 43.1162C91.8798 43.1976 91.66 43.3343 91.4582 43.5264C91.2661 43.7119 91.1099 43.9577 90.9895 44.2637C90.8723 44.5697 90.8137 44.9408 90.8137 45.377C90.8137 45.8327 90.8771 46.2135 91.0041 46.5195C91.1343 46.8255 91.2971 47.0664 91.4924 47.2422C91.6909 47.4212 91.9123 47.5498 92.1564 47.6279C92.4006 47.7028 92.6415 47.7402 92.8791 47.7402C93.107 47.7402 93.3316 47.7061 93.5529 47.6377C93.7775 47.5693 93.9842 47.4766 94.173 47.3594C94.3326 47.265 94.4807 47.1641 94.6174 47.0566C94.7541 46.9492 94.8664 46.8564 94.9543 46.7783H95.1496V48.5166C94.9673 48.598 94.7932 48.6745 94.6271 48.7461C94.4611 48.8177 94.287 48.8796 94.1047 48.9316C93.8671 49 93.6441 49.0521 93.4357 49.0879C93.2274 49.1237 92.9409 49.1416 92.5764 49.1416ZM104.745 49H102.87V45.7969H100.102V49H98.2266V41.7295H100.102V44.3906H102.87V41.7295H104.745V49ZM119.244 46.7148C119.244 47.431 118.939 48.0137 118.331 48.4629C117.725 48.9089 116.902 49.1318 115.86 49.1318C115.258 49.1318 114.732 49.0798 114.283 48.9756C113.837 48.8682 113.419 48.7331 113.028 48.5703V46.8271H113.233C113.62 47.1364 114.053 47.374 114.532 47.54C115.014 47.7061 115.476 47.7891 115.919 47.7891C116.032 47.7891 116.182 47.7793 116.368 47.7598C116.553 47.7402 116.705 47.7077 116.822 47.6621C116.965 47.6035 117.082 47.5303 117.173 47.4424C117.268 47.3545 117.315 47.2243 117.315 47.0518C117.315 46.8923 117.247 46.7555 117.11 46.6416C116.976 46.5244 116.78 46.4349 116.519 46.373C116.246 46.3079 115.956 46.2477 115.65 46.1924C115.347 46.1338 115.062 46.0605 114.796 45.9727C114.184 45.7741 113.742 45.5055 113.472 45.167C113.205 44.8252 113.072 44.402 113.072 43.8975C113.072 43.2204 113.375 42.6686 113.98 42.2422C114.589 41.8125 115.37 41.5977 116.324 41.5977C116.802 41.5977 117.274 41.6449 117.74 41.7393C118.209 41.8304 118.614 41.946 118.956 42.0859V43.7607H118.755C118.463 43.5264 118.103 43.3311 117.676 43.1748C117.253 43.0153 116.82 42.9355 116.378 42.9355C116.221 42.9355 116.065 42.9469 115.909 42.9697C115.756 42.9893 115.608 43.0283 115.464 43.0869C115.338 43.1357 115.228 43.2106 115.137 43.3115C115.046 43.4092 115.001 43.5215 115.001 43.6484C115.001 43.8405 115.074 43.9886 115.22 44.0928C115.367 44.1937 115.643 44.2865 116.05 44.3711C116.317 44.4264 116.573 44.4801 116.817 44.5322C117.064 44.5843 117.33 44.6559 117.613 44.7471C118.17 44.9294 118.58 45.1784 118.843 45.4941C119.11 45.8066 119.244 46.2135 119.244 46.7148ZM126.163 49H121.906V47.7109H123.097V43.0186H121.906V41.7295H126.163V43.0186H124.972V47.7109H126.163V49ZM135.08 43.1357H132.81V49H130.935V43.1357H128.664V41.7295H135.08V43.1357ZM143.167 49H137.908V41.7295H143.167V43.1357H139.773V44.3906H142.923V45.7969H139.773V47.5938H143.167V49Z" fill="black" fill-opacity="0.2"/>
<defs>
<clipPath id="clip0_24_8">
<rect width="30" height="32" fill="white" transform="translate(2.5 19)"/>
</clipPath>
</defs>
</svg>
